<?xml version="1.0" standalone="yes"?>
<svg xmlns="http://www.w3.org/2000/svg" width="4544" height="2773">
<path style="fill:#ffffff; stroke:none;" d="M0 0L0 1050L1 1050C1 976.585 13.1967 901.365 30.1157 830C76.4639 634.5 179.639 453.04 325 314.039C494.975 151.503 714.829 52.428 946 16.5757C1004.07 7.56909 1063.25 1 1122 1L1093 0L1026 0L796 0L0 0z"/>
<path style="fill:#4175b9; stroke:none;" d="M2634 2773L3108 2773C3103.97 2749.61 3087.45 2724.7 3077.86 2703C3056.32 2654.28 3034.4 2605.72 3012.86 2557C2943.82 2400.84 2875.39 2244.24 2804.31 2089C2725.79 1917.52 2650.87 1744.29 2574.14 1572C2460.12 1315.97 2345.19 1060.33 2231.86 804C2193.89 718.124 2156.78 632.327 2109.58 551C2062.64 470.132 2005.86 396.644 1946.08 325C1878.9 244.482 1805.91 168.035 1711 120.248C1612.51 70.6545 1503.09 42.0706 1395 22.5757C987.604 -50.9019 540.296 61.3408 261.285 380C205.526 443.682 157.08 514.784 118.258 590C35.7948 749.77 0 926.211 0 1105C0 1229.46 16.7604 1356.18 58.6921 1474C93.4665 1571.71 140.643 1663.82 201.424 1748C243.207 1805.87 291.068 1859.94 344 1907.83C633.229 2169.52 1047.16 2253.16 1424 2177.8C1603.14 2141.98 1773.77 2065.6 1913 1946.27C1945.03 1918.82 1974.56 1889.02 2003.09 1858C2010.57 1849.86 2017.83 1841.5 2024.92 1833C2027.06 1830.44 2031.62 1826.6 2031.66 1823C2031.7 1817.76 2020.57 1810.41 2017 1807.09C2001.78 1792.91 1986.22 1779.09 1971 1764.91C1909.62 1707.76 1846.01 1652.58 1786 1594C1769.13 1577.53 1750.87 1562.47 1734 1546C1730.53 1542.61 1720.22 1530 1715.04 1531.35C1706.51 1533.57 1696.14 1551.69 1689.99 1558C1667.72 1580.82 1645.3 1603.01 1621 1623.73C1556.59 1678.65 1480.1 1723.77 1399 1748.97C1157.95 1823.88 865.09 1775.25 686.039 1588C635.769 1535.43 593.706 1475.2 563.309 1409C527.075 1330.09 507.011 1244.47 501.09 1158C488.039 967.426 541.835 769.977 674.089 628C769.035 526.075 893.402 466.026 1027 432.626C1098.37 414.783 1173.29 402.21 1247 404.015C1381.58 407.309 1513.55 452.448 1613 545.089C1690.14 616.949 1726.27 712.925 1767.86 807C1828.7 944.592 1889.06 1082.39 1949.86 1220C2105.17 1571.53 2259.55 1923.48 2414.86 2275C2463.29 2384.62 2511.43 2494.38 2559.86 2604L2608.86 2715C2617.18 2733.82 2628.31 2753.25 2634 2773z"/>
<path style="fill:#ffffff; stroke:none;" d="M1197 0L1197 1C1278.35 1 1361.53 14.8926 1441 31.7893C1557.64 56.5872 1678.36 91.4688 1777 160.721C1846.64 209.611 1901.94 273.108 1956.08 338C2022.12 417.15 2082.48 500.221 2131.69 591C2166.15 654.56 2194.64 720.919 2223.86 787C2260.31 869.429 2297.2 951.667 2333.86 1034C2471.48 1343.02 2610.07 1651.61 2746.86 1961C2828.02 2144.56 2910.21 2327.66 2991.86 2511C3017.84 2569.34 3044.03 2627.59 3069.86 2686C3082.3 2714.15 3099.88 2743.33 3108 2773L3704 2773C3700.5 2753.31 3687.28 2732.43 3679.42 2714C3660.75 2670.25 3641.61 2626.71 3622.85 2583C3563.44 2444.58 3504.73 2305.78 3443.86 2168C3304.95 1853.6 3172.37 1536.33 3035.58 1221C2982.99 1099.78 2931.16 978.224 2878.58 857C2862.69 820.373 2847.28 783.519 2831.14 747C2820.26 722.373 2807.67 697.481 2799 672L3152 672L3246 672C3254.65 672 3274.29 668.314 3281.61 673.028C3284.85 675.117 3286.14 680.633 3287.58 684L3299.58 712C3314.39 746.707 3329.33 781.353 3344.28 816C3401.61 948.874 3458.63 1081.9 3515.42 1215C3665.46 1566.6 3817.39 1917.4 3967.42 2269C4015.68 2382.09 4064.35 2495.01 4112.85 2608C4128.73 2644.99 4144.62 2681.98 4160.42 2719C4167.92 2736.58 4177.96 2754.56 4183 2773L4544 2773L4544 949L4543 949C4543 979.262 4532.78 1010.76 4520.31 1038C4469.98 1147.91 4344.33 1208.96 4227 1181.12C4107.55 1152.77 4027.81 1043.76 4028 923C4028.05 891.672 4035.85 858.718 4048.15 830C4061.14 799.675 4079.68 771.398 4103 748C4189.92 660.793 4331.81 646.682 4433 717.721C4466.01 740.897 4492.63 770.958 4512.42 806C4529.85 836.85 4543 875.239 4543 911L4544 911L4544 0L1197 0M1 1153L0 1153L0 2773L2634 2773C2631.01 2756.22 2619.58 2738.68 2612.85 2723C2596.89 2685.85 2580.21 2648.98 2563.86 2612C2514.07 2499.39 2464.62 2386.62 2414.86 2274C2255.86 1914.15 2097.85 1553.86 1938.86 1194C1881.74 1064.72 1825.01 935.266 1767.86 806C1726.51 712.465 1690.61 618.342 1615 546.039C1516.82 452.152 1382.08 407.296 1248 404.015C1172.82 402.175 1096.79 414.929 1024 433.126C955.867 450.16 887.24 473.462 826 508.281C769.82 540.222 718.205 579.641 674.089 627C570.831 737.849 516.376 881.82 502.17 1031C492.273 1134.92 503.237 1244.88 537.003 1344C568.253 1435.73 619.277 1520.57 687.015 1590C854.878 1762.07 1120.64 1817.49 1350 1763.12C1445.5 1740.48 1533.58 1694.75 1610 1633.6C1637.55 1611.55 1662.15 1586.9 1687 1562C1693.69 1555.3 1699.9 1548.11 1706.16 1541C1708.42 1538.43 1711.58 1533.16 1715.04 1532.21C1720.15 1530.8 1730.57 1543.66 1734 1546.99C1750.58 1563.08 1768.46 1577.85 1785 1594C1845.25 1652.81 1908.56 1709.34 1971 1765.83C1986.41 1779.78 2001.96 1793.69 2017 1808.04C2020.06 1810.96 2031.86 1818.8 2031.22 1823.42C2030.65 1827.58 2024.2 1832.89 2021.58 1836C2012.67 1846.54 2003.59 1857.06 1994.01 1867C1958.46 1903.9 1922.07 1938.95 1882 1971C1703.01 2114.2 1477.3 2184.58 1251 2200.09C955.005 2220.38 653.319 2147.94 415 1966.12C361.428 1925.24 312.214 1879.05 267.169 1829C214.839 1770.85 169.331 1705.53 131.694 1637C92.1809 1565.05 60.104 1488.46 39.1157 1409C17.2424 1326.19 1 1238.83 1 1153z"/>
<path style="fill:#4175b9; stroke:none;" d="M2799 672L2821.15 725L2868.15 834L3013.58 1171L3481.85 2257L3625.86 2591L3672.86 2700L3704 2773L4183 2773C4179.94 2755.25 4168.41 2736.53 4161.28 2720C4146.2 2685.04 4131.37 2649.96 4116.28 2615C4068.58 2504.43 4021.34 2393.66 3973.85 2283C3819.93 1924.38 3665.58 1565.93 3512.42 1207C3457.19 1077.57 3401.08 948.503 3346 819C3330.95 783.606 3315.52 748.377 3300.42 713L3288.42 685C3286.94 681.517 3285.56 675.317 3282.35 673.028C3275.83 668.37 3255.96 672 3248 672L3155 672L2799 672M4266 672.424C4216.92 678.875 4172.48 692.465 4132 722.155C4105.72 741.429 4083.12 766.145 4066.2 794C4001.97 899.758 4021.21 1041.45 4115 1123.71C4145.58 1150.54 4181.83 1169.26 4221 1179.85C4253.31 1188.59 4287.94 1189.93 4321 1185.71C4357.11 1181.11 4392.02 1168.17 4423 1149.19C4446.72 1134.66 4468.42 1115.68 4485.8 1094C4578.72 978.072 4556.68 803.851 4434 717.721C4409.31 700.385 4381.26 687.478 4352 680.126C4324.75 673.28 4294.12 668.729 4266 672.424z"/>
</svg>
